<?xml version="1.0" standalone="yes"?>
<svg xmlns="http://www.w3.org/2000/svg" width="512" height="512">
<path style="fill:#ffffff; stroke:none;" d="M0 0L0 36L1 36C4.97447 18.8285 18.8285 4.97443 36 1C26.4404 -3.01135 10.387 0 0 0z"/>
<path style="fill:#0177b7; stroke:none;" d="M36 0.517761C-11.5514 10.6017 0 70.3156 0 106L0 384L0 450C0 465.971 -1.09405 480.368 8.78549 494C22.1047 512.378 41.69 512 62 512L123 512L365 512L440 512C451.655 512 465.669 514.103 477 511.24C523.461 499.502 512 442.044 512 406L512 126L512 61C512 44.9282 512.906 30.4584 502.471 17C489.15 -0.182007 470.638 0 451 0L387 0L149 0L74 0C61.9205 0 47.8307 -1.99109 36 0.517761z"/>
<path style="fill:#ffffff; stroke:none;" d="M476 0L476 1C493.171 4.97443 507.026 18.8285 511 36L512 36L512 0L476 0M109 57.4391C100.404 58.7816 92.0715 61.7689 85 66.9275C41.7236 98.497 67.8062 173.181 123 164.561C132.816 163.028 142.114 159.434 150 153.32C192.006 120.753 161.802 49.1923 109 57.4391M280 222C280 213.42 283.096 197.762 275.786 191.573C271.159 187.655 263.628 189 258 189L215 189C208.334 189 201.3 188.964 198.09 196.04C195.763 201.168 197 208.494 197 214L197 252L197 387L197 429C197 434.856 195.69 442.616 198.457 447.985C202.071 454.999 209.125 455 216 455L257 455C262.624 455 269.941 456.247 274.815 452.852C285.047 445.724 280 418.145 280 407C280 370.318 273.875 327.389 284.59 292C290.668 271.929 307.437 254.123 330 256.171C360.069 258.899 371.998 284.415 372 312L372 405C372 417.325 368.664 435.458 373.344 446.985C376.491 454.736 383.802 455 391 455L436 455C442.373 455 449.865 456.076 454.581 450.786C460.179 444.507 458 432.751 458 425L458 358C458 316.447 462.323 268.201 442.741 230C419.144 183.967 354.351 172.101 310 194.981C296.965 201.705 290.35 212.547 280 222M83.0008 189.742C73.7958 193.277 75 203.019 75 211L75 271L75 399L75 433C75 438.064 74.0198 444.463 76.858 448.957C80.7634 455.14 87.5426 455 94 455L132 455C137.673 455 144.653 456.062 149.985 453.772C159.284 449.777 158 439.344 158 431L158 369L158 242C158 229.74 162.798 204.307 155.297 194.105C151.109 188.408 144.282 189 138 189L101 189C95.5209 189 88.187 187.751 83.0008 189.742M0 476L0 512L36 512L36 511C15.5659 506.27 9.94217 491.8 0 476M511 476C507.026 493.172 493.171 507.026 476 511L476 512L512 512C512 501.613 515.011 485.56 511 476z"/>
</svg>
